<svg xmlns="http://www.w3.org/2000/svg" width="1809.4" height="229.586" viewBox="0 0 1809.4 229.586">
  <g id="Grupo_2" data-name="Grupo 2" transform="translate(-313 -986.814)">
    <g id="Grupo_1" data-name="Grupo 1">
      <path id="Trazado_1" data-name="Trazado 1" d="M504.1,989.9a12.393,12.393,0,0,0-9.5,4,13.212,13.212,0,0,0-3.8,9.5v78.5a5.121,5.121,0,0,1-5.1,5.1H344.9a5.122,5.122,0,0,1-5.1-5.1v-78.5a13.144,13.144,0,0,0-3.9-9.5,12.634,12.634,0,0,0-9.4-4,13.66,13.66,0,0,0-13.5,13.5v197.1a12.851,12.851,0,0,0,4,9.5,13.01,13.01,0,0,0,9.5,4,12.634,12.634,0,0,0,9.4-4,13.31,13.31,0,0,0,3.9-9.5v-81.6a5.121,5.121,0,0,1,5.1-5.1H485.7a5.122,5.122,0,0,1,5.1,5.1v81.6a13.465,13.465,0,0,0,3.8,9.5,12.543,12.543,0,0,0,9.5,4,12.7,12.7,0,0,0,9.5-4,13.01,13.01,0,0,0,4-9.5V1003.4a12.851,12.851,0,0,0-4-9.5,13.01,13.01,0,0,0-9.5-4" fill="#fff"></path>
      <path id="Trazado_2" data-name="Trazado 2" d="M1284.3,989.9c-7.2,0-12.6,2.9-16.3,8.8l-81,122.7a5.045,5.045,0,0,1-8.4,0l-81.2-122.7c-4-6.1-9.2-9-15.5-8.8a13.457,13.457,0,0,0-12.9,13.5v197.1a13.427,13.427,0,0,0,13.1,13.5c9.2.2,13.8-4.4,13.8-13.5v-139a5.013,5.013,0,0,1,9.2-2.8l62.3,92.8c3.9,5.7,8.4,8.6,13.5,8.6s12.4-2.9,16.3-8.6l62-92.2a5.023,5.023,0,0,1,9.2,2.8v138.4a13.427,13.427,0,0,0,13.1,13.5c9.2.2,13.8-4.4,13.8-13.5V1003.4c0-9-3.7-13.5-11.2-13.5" fill="#fff"></path>
      <path id="Trazado_3" data-name="Trazado 3" d="M949.5,1095.7c-5.6-33.3-21.5-71.3-43.7-104.5a9.818,9.818,0,0,0-6.3-4.2,9.03,9.03,0,0,0-7.3,1.6l-4.7,3.4a9.578,9.578,0,0,0-2.5,13.2c20,29.9,34.9,65.3,39.8,94.7a10.87,10.87,0,0,1,0,3.6c-4.9,29.3-19.8,64.6-39.8,94.5a9.578,9.578,0,0,0,2.5,13.2l4.7,3.4a9.279,9.279,0,0,0,5.5,1.8c1.9,0,1.2,0,1.8-.2a9.818,9.818,0,0,0,6.3-4.2c22.2-33.1,38.1-71.1,43.7-104.3a34.548,34.548,0,0,0,0-12" fill="#fff"></path>
      <path id="Trazado_4" data-name="Trazado 4" d="M700.6,1198c-20-29.9-34.9-65.3-39.8-94.7a10.283,10.283,0,0,1,0-3.5c4.9-29.3,19.8-64.6,39.8-94.5a9.578,9.578,0,0,0-2.5-13.2l-4.7-3.4a9.42,9.42,0,0,0-7.3-1.6,10.067,10.067,0,0,0-6.3,4.1c-22.2,33.1-38.1,71.1-43.7,104.3a34.548,34.548,0,0,0,0,12c5.6,33.3,21.5,71.3,43.7,104.5a9.818,9.818,0,0,0,6.3,4.2,11.021,11.021,0,0,0,1.8.2,9.062,9.062,0,0,0,5.5-1.8l4.7-3.4a9.578,9.578,0,0,0,2.5-13.2" fill="#fff"></path>
      <path id="Trazado_5" data-name="Trazado 5" d="M793.2,1086.5l-15.4,27.8h.1L729.6,1202a8.953,8.953,0,0,0,2.9,11,8.787,8.787,0,0,0,11.4-.9l107.3-110.4a8.782,8.782,0,0,0,1.9-9.7,8.971,8.971,0,0,0-8.3-5.5H793.1Z" fill="aqua"></path>
      <path id="Trazado_6" data-name="Trazado 6" d="M841.9,992.1l-87.7,79.1a8.834,8.834,0,0,0-2.3,9.8,8.955,8.955,0,0,0,8.3,5.7h49.1l47.2-85.5a8.828,8.828,0,0,0-8.6-11.4A9.759,9.759,0,0,0,841.9,992.1Z" fill="aqua"></path>
      <path id="Trazado_7" data-name="Trazado 7" d="M1414.6,1200.1V1003.9c0-8.7,5.8-14,13.4-14s13.4,5.3,13.4,14v196.2c0,8.7-5.8,14-13.4,14S1414.6,1208.8,1414.6,1200.1Z" fill="#fff"></path>
    </g>
    <path id="Trazado_8" data-name="Trazado 8" d="M1560.6,1123.3V1001c0-8.7,5.1-14.1,14.4-14.1s13.4,5.4,13.4,14.1v122.3c0,42.9,32,66.3,79.4,66.3s80.4-23.5,80.4-66.3V1001c0-8.7,4.1-14.1,13.4-14.1s13.4,5.4,13.4,14.1v122.3c0,51.6-36.3,90.5-107.1,90.5s-107.1-38.9-107.1-90.5Z" fill="#fff"></path>
    <path id="Trazado_9" data-name="Trazado 9" d="M2111.4,989.5c-7.2,0-12.6,2.9-16.3,8.8l-81,122.7a5.045,5.045,0,0,1-8.4,0l-81.2-122.7c-4-6.1-9.2-9-15.5-8.8a13.457,13.457,0,0,0-12.9,13.5v197.1a13.427,13.427,0,0,0,13.1,13.5c9.2.2,13.8-4.4,13.8-13.5v-139a5.013,5.013,0,0,1,9.2-2.8l62.3,92.8c3.9,5.7,8.4,8.6,13.5,8.6s12.4-2.9,16.3-8.6l62-92.2a5.023,5.023,0,0,1,9.2,2.8v138.4a13.427,13.427,0,0,0,13.1,13.5c9.2.2,13.8-4.4,13.8-13.5V1003c0-9-3.7-13.5-11.2-13.5" fill="#fff"></path>
  </g>
</svg>