<svg xmlns="http://www.w3.org/2000/svg" width="314.45" height="229.586" viewBox="0 0 314.45 229.586">
  <g id="Grupo_5" data-name="Grupo 5" transform="translate(-635.575 -986.814)">
    <path id="Trazado_3" data-name="Trazado 3" d="M949.5,1095.7c-5.6-33.3-21.5-71.3-43.7-104.5a9.818,9.818,0,0,0-6.3-4.2,9.03,9.03,0,0,0-7.3,1.6l-4.7,3.4a9.578,9.578,0,0,0-2.5,13.2c20,29.9,34.9,65.3,39.8,94.7a10.87,10.87,0,0,1,0,3.6c-4.9,29.3-19.8,64.6-39.8,94.5a9.578,9.578,0,0,0,2.5,13.2l4.7,3.4a9.279,9.279,0,0,0,5.5,1.8c1.9,0,1.2,0,1.8-.2a9.818,9.818,0,0,0,6.3-4.2c22.2-33.1,38.1-71.1,43.7-104.3a34.548,34.548,0,0,0,0-12" fill="#fff"></path>
    <path id="Trazado_4" data-name="Trazado 4" d="M700.6,1198c-20-29.9-34.9-65.3-39.8-94.7a10.283,10.283,0,0,1,0-3.5c4.9-29.3,19.8-64.6,39.8-94.5a9.578,9.578,0,0,0-2.5-13.2l-4.7-3.4a9.42,9.42,0,0,0-7.3-1.6,10.067,10.067,0,0,0-6.3,4.1c-22.2,33.1-38.1,71.1-43.7,104.3a34.548,34.548,0,0,0,0,12c5.6,33.3,21.5,71.3,43.7,104.5a9.818,9.818,0,0,0,6.3,4.2,11.021,11.021,0,0,0,1.8.2,9.062,9.062,0,0,0,5.5-1.8l4.7-3.4a9.578,9.578,0,0,0,2.5-13.2" fill="#fff"></path>
    <path id="Trazado_5" data-name="Trazado 5" d="M793.2,1086.5l-15.4,27.8h.1L729.6,1202a8.953,8.953,0,0,0,2.9,11,8.787,8.787,0,0,0,11.4-.9l107.3-110.4a8.782,8.782,0,0,0,1.9-9.7,8.971,8.971,0,0,0-8.3-5.5H793.1Z" fill="aqua"></path>
    <path id="Trazado_6" data-name="Trazado 6" d="M841.9,992.1l-87.7,79.1a8.834,8.834,0,0,0-2.3,9.8,8.955,8.955,0,0,0,8.3,5.7h49.1l47.2-85.5a8.828,8.828,0,0,0-8.6-11.4A9.759,9.759,0,0,0,841.9,992.1Z" fill="aqua"></path>
  </g>
</svg>